<mxfile host="app.diagrams.net" modified="2023-06-05T16:55:22.913Z" agent="Mozilla/5.0 (Macintosh; Intel Mac OS X 10_15_7) AppleWebKit/537.36 (KHTML, like Gecko) Chrome/114.0.0.0 Safari/537.36" etag="_7dd6R1aKq8-pl47ldmV" version="21.3.7" type="device">
  <diagram id="C5RBs43oDa-KdzZeNtuy" name="Page-1">
    <mxGraphModel dx="1592" dy="864" grid="1" gridSize="10" guides="1" tooltips="1" connect="1" arrows="1" fold="1" page="1" pageScale="1" pageWidth="827" pageHeight="1169" math="0" shadow="0">
      <root>
        <mxCell id="WIyWlLk6GJQsqaUBKTNV-0" />
        <mxCell id="WIyWlLk6GJQsqaUBKTNV-1" parent="WIyWlLk6GJQsqaUBKTNV-0" />
        <mxCell id="2fysn9FgPYTBoluhu8F1-4" style="edgeStyle=orthogonalEdgeStyle;rounded=0;orthogonalLoop=1;jettySize=auto;html=1;exitX=0.25;exitY=1;exitDx=0;exitDy=0;" edge="1" parent="WIyWlLk6GJQsqaUBKTNV-1" source="2fysn9FgPYTBoluhu8F1-0">
          <mxGeometry relative="1" as="geometry">
            <mxPoint x="354.6666666666665" y="340" as="targetPoint" />
          </mxGeometry>
        </mxCell>
        <mxCell id="2fysn9FgPYTBoluhu8F1-0" value="api level" style="rounded=0;whiteSpace=wrap;html=1;" vertex="1" parent="WIyWlLk6GJQsqaUBKTNV-1">
          <mxGeometry x="325" y="230" width="120" height="60" as="geometry" />
        </mxCell>
        <mxCell id="2fysn9FgPYTBoluhu8F1-5" style="edgeStyle=orthogonalEdgeStyle;rounded=0;orthogonalLoop=1;jettySize=auto;html=1;exitX=0.25;exitY=1;exitDx=0;exitDy=0;entryX=0.25;entryY=0;entryDx=0;entryDy=0;" edge="1" parent="WIyWlLk6GJQsqaUBKTNV-1" source="2fysn9FgPYTBoluhu8F1-2" target="2fysn9FgPYTBoluhu8F1-3">
          <mxGeometry relative="1" as="geometry" />
        </mxCell>
        <mxCell id="2fysn9FgPYTBoluhu8F1-11" style="edgeStyle=orthogonalEdgeStyle;rounded=0;orthogonalLoop=1;jettySize=auto;html=1;exitX=0.75;exitY=0;exitDx=0;exitDy=0;entryX=0.75;entryY=1;entryDx=0;entryDy=0;" edge="1" parent="WIyWlLk6GJQsqaUBKTNV-1" source="2fysn9FgPYTBoluhu8F1-2" target="2fysn9FgPYTBoluhu8F1-0">
          <mxGeometry relative="1" as="geometry" />
        </mxCell>
        <mxCell id="2fysn9FgPYTBoluhu8F1-2" value="managers for each entitiy" style="rounded=0;whiteSpace=wrap;html=1;" vertex="1" parent="WIyWlLk6GJQsqaUBKTNV-1">
          <mxGeometry x="325" y="350" width="120" height="60" as="geometry" />
        </mxCell>
        <mxCell id="2fysn9FgPYTBoluhu8F1-6" style="edgeStyle=orthogonalEdgeStyle;rounded=0;orthogonalLoop=1;jettySize=auto;html=1;exitX=0.75;exitY=0;exitDx=0;exitDy=0;entryX=0.75;entryY=1;entryDx=0;entryDy=0;" edge="1" parent="WIyWlLk6GJQsqaUBKTNV-1" source="2fysn9FgPYTBoluhu8F1-3" target="2fysn9FgPYTBoluhu8F1-2">
          <mxGeometry relative="1" as="geometry">
            <mxPoint x="414.6666666666665" y="420" as="targetPoint" />
          </mxGeometry>
        </mxCell>
        <mxCell id="2fysn9FgPYTBoluhu8F1-3" value="storage for each entity" style="rounded=0;whiteSpace=wrap;html=1;" vertex="1" parent="WIyWlLk6GJQsqaUBKTNV-1">
          <mxGeometry x="325" y="480" width="120" height="60" as="geometry" />
        </mxCell>
        <mxCell id="2fysn9FgPYTBoluhu8F1-12" value="&lt;font style=&quot;font-size: 18px;&quot;&gt;High level Diagram of the System&lt;/font&gt;" style="text;html=1;strokeColor=none;fillColor=none;align=center;verticalAlign=middle;whiteSpace=wrap;rounded=0;" vertex="1" parent="WIyWlLk6GJQsqaUBKTNV-1">
          <mxGeometry x="260" y="130" width="250" height="50" as="geometry" />
        </mxCell>
      </root>
    </mxGraphModel>
  </diagram>
</mxfile>
